# xmcd CD database file
#
# Track frame offsets:
#	150
#	15465
#	38420
#	62677
#	83612
#	107240
#	131727
#	135662
#	164482
#
# Disc length: 2483 seconds
#
# Revision: 0
# Processed by: cddbd v1.5.1PL0 Copyright (c) Steve Scherf et al.
# Submitted via: CDex 1.51
#
DISCID=6c09b109
DTITLE=CHABA - CHABA
DYEAR=2003
DGENRE=
TTITLE0=旅人
TTITLE1=切な悲しみ
TTITLE2=小さなオーロラ
TTITLE3=青春キネマ
TTITLE4=堕ちない月
TTITLE5=世界の食卓
TTITLE6=441
TTITLE7=バロンの日記
TTITLE8=針と糸
EXTD=YEAR: 2003
EXTT0=
EXTT1=
EXTT2=
EXTT3=
EXTT4=
EXTT5=
EXTT6=
EXTT7=
EXTT8=
PLAYORDER=
